<mxfile host="app.diagrams.net" agent="Mozilla/5.0 (Macintosh; Intel Mac OS X 10_15_7) AppleWebKit/537.36 (KHTML, like Gecko) Chrome/130.0.0.0 Safari/537.36" version="24.8.4">
  <diagram name="Trang-1" id="c_NWSGNPZaXhOvHww6Tx">
    <mxGraphModel dx="1562" dy="857" grid="1" gridSize="10" guides="1" tooltips="1" connect="1" arrows="1" fold="1" page="1" pageScale="1" pageWidth="827" pageHeight="1169" math="0" shadow="0">
      <root>
        <mxCell id="0" />
        <mxCell id="1" parent="0" />
        <mxCell id="eybCd_56yI4pJQDHyEzt-3" style="edgeStyle=orthogonalEdgeStyle;rounded=0;orthogonalLoop=1;jettySize=auto;html=1;exitX=1;exitY=0.5;exitDx=0;exitDy=0;" edge="1" parent="1" source="eybCd_56yI4pJQDHyEzt-1" target="eybCd_56yI4pJQDHyEzt-2">
          <mxGeometry relative="1" as="geometry" />
        </mxCell>
        <mxCell id="eybCd_56yI4pJQDHyEzt-4" value="Combination" style="edgeLabel;html=1;align=center;verticalAlign=middle;resizable=0;points=[];" vertex="1" connectable="0" parent="eybCd_56yI4pJQDHyEzt-3">
          <mxGeometry x="-0.1228" y="-1" relative="1" as="geometry">
            <mxPoint as="offset" />
          </mxGeometry>
        </mxCell>
        <mxCell id="eybCd_56yI4pJQDHyEzt-1" value="QC results" style="rounded=0;whiteSpace=wrap;html=1;strokeColor=default;align=center;verticalAlign=middle;fontFamily=Helvetica;fontSize=12;fontColor=default;fillColor=default;" vertex="1" parent="1">
          <mxGeometry x="320" y="40" width="130" height="80" as="geometry" />
        </mxCell>
        <mxCell id="eybCd_56yI4pJQDHyEzt-2" value="QC result" style="rounded=0;whiteSpace=wrap;html=1;strokeColor=default;align=center;verticalAlign=middle;fontFamily=Helvetica;fontSize=12;fontColor=default;fillColor=default;" vertex="1" parent="1">
          <mxGeometry x="560" y="40" width="130" height="80" as="geometry" />
        </mxCell>
        <mxCell id="eybCd_56yI4pJQDHyEzt-6" style="edgeStyle=orthogonalEdgeStyle;rounded=0;orthogonalLoop=1;jettySize=auto;html=1;" edge="1" parent="1" source="eybCd_56yI4pJQDHyEzt-5" target="eybCd_56yI4pJQDHyEzt-1">
          <mxGeometry relative="1" as="geometry" />
        </mxCell>
        <mxCell id="eybCd_56yI4pJQDHyEzt-7" value="Quality Control" style="edgeLabel;html=1;align=center;verticalAlign=middle;resizable=0;points=[];" vertex="1" connectable="0" parent="eybCd_56yI4pJQDHyEzt-6">
          <mxGeometry x="-0.05" y="1" relative="1" as="geometry">
            <mxPoint as="offset" />
          </mxGeometry>
        </mxCell>
        <mxCell id="eybCd_56yI4pJQDHyEzt-9" style="edgeStyle=orthogonalEdgeStyle;rounded=0;orthogonalLoop=1;jettySize=auto;html=1;entryX=0.5;entryY=0;entryDx=0;entryDy=0;" edge="1" parent="1" source="eybCd_56yI4pJQDHyEzt-5" target="eybCd_56yI4pJQDHyEzt-8">
          <mxGeometry relative="1" as="geometry" />
        </mxCell>
        <mxCell id="eybCd_56yI4pJQDHyEzt-10" value="Quality filtering, trimming" style="edgeLabel;html=1;align=center;verticalAlign=middle;resizable=0;points=[];" vertex="1" connectable="0" parent="eybCd_56yI4pJQDHyEzt-9">
          <mxGeometry x="-0.0833" y="1" relative="1" as="geometry">
            <mxPoint x="-1" y="5" as="offset" />
          </mxGeometry>
        </mxCell>
        <mxCell id="eybCd_56yI4pJQDHyEzt-5" value="Raw data" style="rounded=0;whiteSpace=wrap;html=1;strokeColor=default;align=center;verticalAlign=middle;fontFamily=Helvetica;fontSize=12;fontColor=default;fillColor=default;" vertex="1" parent="1">
          <mxGeometry x="70" y="40" width="130" height="80" as="geometry" />
        </mxCell>
        <mxCell id="eybCd_56yI4pJQDHyEzt-12" style="edgeStyle=orthogonalEdgeStyle;rounded=0;orthogonalLoop=1;jettySize=auto;html=1;entryX=0.5;entryY=0;entryDx=0;entryDy=0;" edge="1" parent="1" source="eybCd_56yI4pJQDHyEzt-8" target="eybCd_56yI4pJQDHyEzt-11">
          <mxGeometry relative="1" as="geometry" />
        </mxCell>
        <mxCell id="eybCd_56yI4pJQDHyEzt-13" value="Remove contamination" style="edgeLabel;html=1;align=center;verticalAlign=middle;resizable=0;points=[];" vertex="1" connectable="0" parent="eybCd_56yI4pJQDHyEzt-12">
          <mxGeometry x="-0.0167" relative="1" as="geometry">
            <mxPoint as="offset" />
          </mxGeometry>
        </mxCell>
        <mxCell id="eybCd_56yI4pJQDHyEzt-8" value="Clean data 1" style="rounded=0;whiteSpace=wrap;html=1;strokeColor=default;align=center;verticalAlign=middle;fontFamily=Helvetica;fontSize=12;fontColor=default;fillColor=default;" vertex="1" parent="1">
          <mxGeometry x="70" y="190" width="130" height="80" as="geometry" />
        </mxCell>
        <mxCell id="eybCd_56yI4pJQDHyEzt-28" style="edgeStyle=orthogonalEdgeStyle;rounded=0;orthogonalLoop=1;jettySize=auto;html=1;entryX=0.5;entryY=0;entryDx=0;entryDy=0;" edge="1" parent="1" source="eybCd_56yI4pJQDHyEzt-11" target="eybCd_56yI4pJQDHyEzt-27">
          <mxGeometry relative="1" as="geometry" />
        </mxCell>
        <mxCell id="eybCd_56yI4pJQDHyEzt-29" value="Metagenomic assembly" style="edgeLabel;html=1;align=center;verticalAlign=middle;resizable=0;points=[];" vertex="1" connectable="0" parent="eybCd_56yI4pJQDHyEzt-28">
          <mxGeometry x="0.0429" y="3" relative="1" as="geometry">
            <mxPoint as="offset" />
          </mxGeometry>
        </mxCell>
        <mxCell id="eybCd_56yI4pJQDHyEzt-11" value="Clean data 2" style="rounded=0;whiteSpace=wrap;html=1;strokeColor=default;align=center;verticalAlign=middle;fontFamily=Helvetica;fontSize=12;fontColor=default;fillColor=default;" vertex="1" parent="1">
          <mxGeometry x="70" y="330" width="130" height="80" as="geometry" />
        </mxCell>
        <mxCell id="eybCd_56yI4pJQDHyEzt-44" style="edgeStyle=orthogonalEdgeStyle;rounded=0;orthogonalLoop=1;jettySize=auto;html=1;entryX=0.5;entryY=0;entryDx=0;entryDy=0;" edge="1" parent="1" source="eybCd_56yI4pJQDHyEzt-27" target="eybCd_56yI4pJQDHyEzt-43">
          <mxGeometry relative="1" as="geometry" />
        </mxCell>
        <mxCell id="eybCd_56yI4pJQDHyEzt-45" value="Speciation and abundance" style="edgeLabel;html=1;align=center;verticalAlign=middle;resizable=0;points=[];" vertex="1" connectable="0" parent="eybCd_56yI4pJQDHyEzt-44">
          <mxGeometry x="-0.0808" y="3" relative="1" as="geometry">
            <mxPoint y="1" as="offset" />
          </mxGeometry>
        </mxCell>
        <mxCell id="eybCd_56yI4pJQDHyEzt-51" style="edgeStyle=orthogonalEdgeStyle;rounded=0;orthogonalLoop=1;jettySize=auto;html=1;entryX=0;entryY=0.5;entryDx=0;entryDy=0;exitX=0;exitY=0.5;exitDx=0;exitDy=0;" edge="1" parent="1" source="eybCd_56yI4pJQDHyEzt-27" target="eybCd_56yI4pJQDHyEzt-47">
          <mxGeometry relative="1" as="geometry" />
        </mxCell>
        <mxCell id="eybCd_56yI4pJQDHyEzt-52" value="Functional profiling" style="edgeLabel;html=1;align=center;verticalAlign=middle;resizable=0;points=[];" vertex="1" connectable="0" parent="eybCd_56yI4pJQDHyEzt-51">
          <mxGeometry x="0.3486" y="1" relative="1" as="geometry">
            <mxPoint y="14" as="offset" />
          </mxGeometry>
        </mxCell>
        <mxCell id="eybCd_56yI4pJQDHyEzt-27" value="Assembly data" style="rounded=0;whiteSpace=wrap;html=1;strokeColor=default;align=center;verticalAlign=middle;fontFamily=Helvetica;fontSize=12;fontColor=default;fillColor=default;" vertex="1" parent="1">
          <mxGeometry x="70" y="505" width="130" height="80" as="geometry" />
        </mxCell>
        <mxCell id="eybCd_56yI4pJQDHyEzt-37" value="MultiQC" style="shape=note;size=20;whiteSpace=wrap;html=1;strokeColor=default;align=center;verticalAlign=middle;fontFamily=Helvetica;fontSize=12;fontColor=default;fillColor=default;fontStyle=1" vertex="1" parent="1">
          <mxGeometry x="460" y="30" width="90" height="40" as="geometry" />
        </mxCell>
        <mxCell id="eybCd_56yI4pJQDHyEzt-38" value="FastQC" style="shape=note;size=20;whiteSpace=wrap;html=1;strokeColor=default;align=center;verticalAlign=middle;fontFamily=Helvetica;fontSize=12;fontColor=default;fillColor=default;fontStyle=1" vertex="1" parent="1">
          <mxGeometry x="210" y="30" width="90" height="40" as="geometry" />
        </mxCell>
        <mxCell id="eybCd_56yI4pJQDHyEzt-39" value="Trimmomatic" style="shape=note;size=20;whiteSpace=wrap;html=1;strokeColor=default;align=center;verticalAlign=middle;fontFamily=Helvetica;fontSize=12;fontColor=default;fillColor=default;fontStyle=1" vertex="1" parent="1">
          <mxGeometry x="205" y="140" width="115" height="40" as="geometry" />
        </mxCell>
        <mxCell id="eybCd_56yI4pJQDHyEzt-40" value="BBtools" style="shape=note;size=20;whiteSpace=wrap;html=1;strokeColor=default;align=center;verticalAlign=middle;fontFamily=Helvetica;fontSize=12;fontColor=default;fillColor=default;fontStyle=1" vertex="1" parent="1">
          <mxGeometry x="205" y="280" width="85" height="40" as="geometry" />
        </mxCell>
        <mxCell id="eybCd_56yI4pJQDHyEzt-41" value="&lt;h3 style=&quot;box-sizing: border-box; margin-top: var(--base-size-24); margin-bottom: var(--base-size-16); line-height: 1.25; color: rgb(31, 35, 40); font-family: -apple-system, &amp;quot;system-ui&amp;quot;, &amp;quot;Segoe UI&amp;quot;, &amp;quot;Noto Sans&amp;quot;, Helvetica, Arial, sans-serif, &amp;quot;Apple Color Emoji&amp;quot;, &amp;quot;Segoe UI Emoji&amp;quot;; text-align: start; background-color: rgb(255, 255, 255);&quot; dir=&quot;auto&quot; class=&quot;heading-element&quot; tabindex=&quot;-1&quot;&gt;&lt;font style=&quot;font-size: 12px;&quot;&gt;Assemble target reads: Megahit Assembler&lt;/font&gt;&lt;/h3&gt;&lt;div style=&quot;&quot;&gt;&lt;h3 style=&quot;box-sizing: border-box; margin-top: var(--base-size-24); margin-bottom: var(--base-size-16); line-height: 1.25; color: rgb(31, 35, 40); font-family: -apple-system, &amp;quot;system-ui&amp;quot;, &amp;quot;Segoe UI&amp;quot;, &amp;quot;Noto Sans&amp;quot;, Helvetica, Arial, sans-serif, &amp;quot;Apple Color Emoji&amp;quot;, &amp;quot;Segoe UI Emoji&amp;quot;; text-align: start; background-color: rgb(255, 255, 255);&quot; dir=&quot;auto&quot; class=&quot;heading-element&quot; tabindex=&quot;-1&quot;&gt;&lt;font style=&quot;font-size: 12px;&quot;&gt;Align target reads to assemblies: BWA&lt;/font&gt;&lt;/h3&gt;&lt;/div&gt;&lt;div style=&quot;&quot;&gt;&lt;h3 style=&quot;box-sizing: border-box; margin-top: var(--base-size-24); margin-bottom: var(--base-size-16); line-height: 1.25; color: rgb(31, 35, 40); font-family: -apple-system, &amp;quot;system-ui&amp;quot;, &amp;quot;Segoe UI&amp;quot;, &amp;quot;Noto Sans&amp;quot;, Helvetica, Arial, sans-serif, &amp;quot;Apple Color Emoji&amp;quot;, &amp;quot;Segoe UI Emoji&amp;quot;; text-align: start; background-color: rgb(255, 255, 255);&quot; dir=&quot;auto&quot; class=&quot;heading-element&quot; tabindex=&quot;-1&quot;&gt;&lt;font style=&quot;font-size: 12px;&quot;&gt;Calculate contig read coverage: samtools&amp;nbsp;&lt;/font&gt;&lt;/h3&gt;&lt;h3 style=&quot;box-sizing: border-box; margin-top: var(--base-size-24); margin-bottom: var(--base-size-16); line-height: 1.25; color: rgb(31, 35, 40); font-family: -apple-system, &amp;quot;system-ui&amp;quot;, &amp;quot;Segoe UI&amp;quot;, &amp;quot;Noto Sans&amp;quot;, Helvetica, Arial, sans-serif, &amp;quot;Apple Color Emoji&amp;quot;, &amp;quot;Segoe UI Emoji&amp;quot;; text-align: start; background-color: rgb(255, 255, 255);&quot; dir=&quot;auto&quot; class=&quot;heading-element&quot; tabindex=&quot;-1&quot;&gt;&lt;span style=&quot;font-size: 12px;&quot;&gt;&lt;font style=&quot;font-size: 12px;&quot;&gt;Filter contigs: seqtk&lt;/font&gt;&lt;/span&gt;&lt;/h3&gt;&lt;/div&gt;&lt;div style=&quot;&quot;&gt;&lt;h3 style=&quot;box-sizing: border-box; margin-top: var(--base-size-24); margin-bottom: var(--base-size-16); line-height: 1.25; color: rgb(31, 35, 40); font-family: -apple-system, &amp;quot;system-ui&amp;quot;, &amp;quot;Segoe UI&amp;quot;, &amp;quot;Noto Sans&amp;quot;, Helvetica, Arial, sans-serif, &amp;quot;Apple Color Emoji&amp;quot;, &amp;quot;Segoe UI Emoji&amp;quot;; text-align: start; background-color: rgb(255, 255, 255);&quot; dir=&quot;auto&quot; class=&quot;heading-element&quot; tabindex=&quot;-1&quot;&gt;&lt;font style=&quot;font-size: 12px;&quot;&gt;Create target read and assembly summaries: bash&lt;/font&gt;&lt;/h3&gt;&lt;/div&gt;" style="shape=note;size=20;whiteSpace=wrap;html=1;strokeColor=default;align=center;verticalAlign=middle;fontFamily=Helvetica;fontSize=12;fontColor=default;fillColor=default;" vertex="1" parent="1">
          <mxGeometry x="210" y="415" width="320" height="90" as="geometry" />
        </mxCell>
        <mxCell id="eybCd_56yI4pJQDHyEzt-43" value="Reports" style="rounded=0;whiteSpace=wrap;html=1;strokeColor=default;align=center;verticalAlign=middle;fontFamily=Helvetica;fontSize=12;fontColor=default;fillColor=default;" vertex="1" parent="1">
          <mxGeometry x="70" y="660" width="130" height="80" as="geometry" />
        </mxCell>
        <mxCell id="eybCd_56yI4pJQDHyEzt-46" value="&lt;h3 tabindex=&quot;-1&quot; class=&quot;heading-element&quot; dir=&quot;auto&quot; style=&quot;box-sizing: border-box; margin-top: var(--base-size-24); margin-bottom: var(--base-size-16); line-height: 1.25; color: rgb(31, 35, 40); font-family: -apple-system, &amp;quot;system-ui&amp;quot;, &amp;quot;Segoe UI&amp;quot;, &amp;quot;Noto Sans&amp;quot;, Helvetica, Arial, sans-serif, &amp;quot;Apple Color Emoji&amp;quot;, &amp;quot;Segoe UI Emoji&amp;quot;; text-align: start; background-color: rgb(255, 255, 255);&quot;&gt;&lt;font style=&quot;font-size: 12px;&quot;&gt;Speciation: Kraken2, kronatools, BBtools&lt;/font&gt;&lt;/h3&gt;&lt;div style=&quot;&quot;&gt;&lt;font style=&quot;font-size: 12px;&quot;&gt;Abundance: Bracken2&lt;/font&gt;&lt;/div&gt;" style="shape=note;size=20;whiteSpace=wrap;html=1;strokeColor=default;align=center;verticalAlign=middle;fontFamily=Helvetica;fontSize=12;fontColor=default;fillColor=default;fontStyle=1" vertex="1" parent="1">
          <mxGeometry x="220" y="600" width="280" height="50" as="geometry" />
        </mxCell>
        <mxCell id="eybCd_56yI4pJQDHyEzt-47" value="Reports" style="rounded=0;whiteSpace=wrap;html=1;strokeColor=default;align=center;verticalAlign=middle;fontFamily=Helvetica;fontSize=12;fontColor=default;fillColor=default;" vertex="1" parent="1">
          <mxGeometry x="75" y="830" width="130" height="70" as="geometry" />
        </mxCell>
        <mxCell id="eybCd_56yI4pJQDHyEzt-49" value="&lt;h3 style=&quot;box-sizing: border-box; margin-top: var(--base-size-24); margin-bottom: var(--base-size-16); line-height: 1.25; color: rgb(31, 35, 40); font-family: -apple-system, &amp;quot;system-ui&amp;quot;, &amp;quot;Segoe UI&amp;quot;, &amp;quot;Noto Sans&amp;quot;, Helvetica, Arial, sans-serif, &amp;quot;Apple Color Emoji&amp;quot;, &amp;quot;Segoe UI Emoji&amp;quot;; text-align: start; background-color: rgb(255, 255, 255); font-size: 12px;&quot; dir=&quot;auto&quot; class=&quot;heading-element&quot; tabindex=&quot;-1&quot;&gt;&lt;span style=&quot;font-size: 12px;&quot;&gt;&lt;font style=&quot;font-size: 12px;&quot;&gt;HUMAnN 2, metaphlan2&lt;/font&gt;&lt;/span&gt;&lt;/h3&gt;" style="shape=note;size=20;whiteSpace=wrap;html=1;strokeColor=default;align=center;verticalAlign=middle;fontFamily=Helvetica;fontSize=12;fontColor=default;fillColor=default;" vertex="1" parent="1">
          <mxGeometry x="115" y="760" width="175" height="50" as="geometry" />
        </mxCell>
      </root>
    </mxGraphModel>
  </diagram>
</mxfile>
